<?xml version="1.0" encoding="UTF-8"?>
<svg width="1600px" height="1600px" viewBox="0 0 1600 1600" version="1.1" xmlns="http://www.w3.org/2000/svg" xmlns:xlink="http://www.w3.org/1999/xlink">
    <title>Rectangle</title>
    <defs>
        <filter x="-3.8%" y="-4.5%" width="108.7%" height="111.7%" filterUnits="objectBoundingBox" id="filter-1">
            <feOffset dx="8" dy="16" in="SourceAlpha" result="shadowOffsetOuter1"></feOffset>
            <feGaussianBlur stdDeviation="20" in="shadowOffsetOuter1" result="shadowBlurOuter1"></feGaussianBlur>
            <feColorMatrix values="0 0 0 0 0   0 0 0 0 0   0 0 0 0 0  0 0 0 0.5 0" type="matrix" in="shadowBlurOuter1" result="shadowMatrixOuter1"></feColorMatrix>
            <feMerge>
                <feMergeNode in="shadowMatrixOuter1"></feMergeNode>
                <feMergeNode in="SourceGraphic"></feMergeNode>
            </feMerge>
        </filter>
        <linearGradient x1="99.7471907%" y1="22.7646868%" x2="-0.252809272%" y2="85.0467183%" id="linearGradient-2">
            <stop stop-color="#0A8497" offset="0%"></stop>
            <stop stop-color="#0A4954" offset="50.4345752%"></stop>
            <stop stop-color="#011415" offset="100%"></stop>
        </linearGradient>
        <linearGradient x1="50%" y1="-50.0140183%" x2="50%" y2="124.422742%" id="linearGradient-3">
            <stop stop-color="#451C07" offset="0%"></stop>
            <stop stop-color="#E77023" offset="51.0544143%"></stop>
            <stop stop-color="#E97E39" offset="100%"></stop>
        </linearGradient>
        <linearGradient x1="-13.4642499%" y1="-12.6571578%" x2="89.4731569%" y2="100%" id="linearGradient-4">
            <stop stop-color="#7A3810" offset="0%"></stop>
            <stop stop-color="#E77023" offset="49.7444805%"></stop>
            <stop stop-color="#E97E39" offset="100%"></stop>
        </linearGradient>
        <path d="M1342.31387,8.45942225 L1571.14973,244.453311 C1571.91861,245.246247 1571.89911,246.512353 1571.10618,247.281238 C1570.78639,247.591323 1570.37224,247.785772 1569.92939,247.83375 L1444.36827,261.43698 C1400.68115,266.170021 1361.35512,234.77781 1356.28991,191.127954 L1335.46929,11.7048488 C1335.21466,9.51056271 1336.78706,7.52532453 1338.98135,7.27069519 C1340.21658,7.12735652 1341.44821,7.56668618 1342.31387,8.45942225 Z" id="path-5"></path>
    </defs>
    <g id="Page-1" stroke="none" stroke-width="1" fill="none" fill-rule="evenodd">
        <rect id="Rectangle" x="0" y="0" width="1600" height="1600"></rect>
        <g id="Group" transform="translate(13, 215)">
            <g filter="url(#filter-1)" transform="translate(0, 7.0677)" id="Combined-Shape">
                <path d="M1339.0001,0 L1571.47399,243.042838 L1558.12958,273.190458 C1553.42045,256.343293 1537.95938,243.985809 1519.61263,243.985809 L795.118491,243.989507 L794.446668,243.99271 C794.230965,243.988114 794.014626,243.985809 793.79765,243.985809 C719.810354,243.985809 659.8318,303.976163 659.8318,377.978016 C659.8318,412.931623 673.212992,444.75927 695.128936,468.616239 C699.468554,474.173552 704.550834,479.294959 710.357625,483.832613 L958.911561,678.060562 L958.8464,678.276562 C966.678927,684.109114 971.752287,693.441495 971.752287,703.959056 C971.752287,721.297705 957.964451,735.415398 940.756906,735.941968 L940.292307,735.957195 L51.9969757,735.957195 C23.279839,735.957195 -7.10542736e-15,712.677356 -7.10542736e-15,683.960219 L7.10542736e-15,667.96115 C7.10542736e-15,639.244013 23.279839,615.964174 51.9969757,615.964174 L503.223,615.964 L629.179783,120.5607 C647.210035,49.6440019 711.045728,0 784.205073,0 L1339.0001,0 Z M407.885794,375.978132 C436.602931,375.978132 459.88277,399.257971 459.88277,427.975108 L459.88277,443.974177 C459.88277,472.691314 436.602931,495.971153 407.885794,495.971153 L211.9562,495.971153 C183.239063,495.971153 159.959224,472.691314 159.959224,443.974177 L159.959224,427.975108 C159.959224,399.257971 183.239063,375.978132 211.9562,375.978132 L407.885794,375.978132 Z M211.9562,855.950216 L587.839921,855.950216 C616.557058,855.950216 639.836897,879.230055 639.836897,907.947191 L639.836897,923.946261 C639.836897,952.663398 616.557058,975.943237 587.839921,975.943237 L211.9562,975.943237 C183.239063,975.943237 159.959224,952.663398 159.959224,923.946261 L159.959224,907.947191 C159.959224,879.230055 183.239063,855.950216 211.9562,855.950216 Z" fill="url(#linearGradient-2)"></path>
                <path d="M1548.2968,311.848321 L1362.3288,1043.3716 C1344.30056,1114.2883 1280.47201,1163.9323 1207.32084,1163.9323 L569.739215,1163.9323 C561.819344,1163.9323 554.033921,1163.35648 546.422503,1162.24442 C591.779496,1145.19383 645.728737,1104.15191 708.270514,1039.11983 C739.646449,1006.49457 775.48687,965.437852 815.791778,915.949682 L1147.74767,915.946726 L1150.06198,915.927971 C1226.28606,914.691733 1287.69634,852.497083 1287.69634,775.954868 C1287.69634,732.716578 1268.09995,694.056682 1237.31025,668.38165 C1234.36417,665.287933 1231.15602,662.37082 1227.68967,659.661772 L919.424032,418.747438 C909.770272,408.685919 903.837129,395.025003 903.837129,379.9779 C903.837129,349.714244 927.837711,325.057955 957.850726,323.981156 L1519.61128,323.981156 C1530.86384,323.981156 1541.03077,319.331601 1548.2968,311.848321 Z" fill="url(#linearGradient-3)"></path>
            </g>
            <g id="Rectangle-4">
                <use fill="#D8D8D8" xlink:href="#path-5"></use>
                <use fill="url(#linearGradient-4)" xlink:href="#path-5"></use>
            </g>
        </g>
    </g>
</svg>