<?xml version="1.0" encoding="UTF-8"?>
<svg width="2144px" height="642px" viewBox="0 0 2144 642" version="1.1" xmlns="http://www.w3.org/2000/svg" xmlns:xlink="http://www.w3.org/1999/xlink">
    <title>Group</title>
    <defs>
        <filter x="-2.5%" y="-8.6%" width="106.2%" height="121.9%" filterUnits="objectBoundingBox" id="filter-1">
            <feOffset dx="8" dy="16" in="SourceAlpha" result="shadowOffsetOuter1"></feOffset>
            <feGaussianBlur stdDeviation="20" in="shadowOffsetOuter1" result="shadowBlurOuter1"></feGaussianBlur>
            <feColorMatrix values="0 0 0 0 0   0 0 0 0 0   0 0 0 0 0  0 0 0 0.5 0" type="matrix" in="shadowBlurOuter1" result="shadowMatrixOuter1"></feColorMatrix>
            <feMerge>
                <feMergeNode in="shadowMatrixOuter1"></feMergeNode>
                <feMergeNode in="SourceGraphic"></feMergeNode>
            </feMerge>
        </filter>
        <linearGradient x1="0.481670478%" y1="45.4372865%" x2="100.48167%" y2="45.4372865%" id="linearGradient-2">
            <stop stop-color="#451C07" offset="0%"></stop>
            <stop stop-color="#E77023" offset="0.0817139487%"></stop>
            <stop stop-color="#E97E39" offset="100%"></stop>
        </linearGradient>
        <linearGradient x1="102.373068%" y1="55.4793679%" x2="5.41184757%" y2="55.4793679%" id="linearGradient-3">
            <stop stop-color="#0A8497" offset="0%"></stop>
            <stop stop-color="#0A4954" offset="100%"></stop>
            <stop stop-color="#011415" offset="100%"></stop>
        </linearGradient>
    </defs>
    <g id="Page-1" stroke="none" stroke-width="1" fill="none" fill-rule="evenodd">
        <g id="Group" filter="url(#filter-1)" transform="translate(24, 22)">
            <path d="M592.674335,139.366643 C620.948626,139.366643 643.300409,147.316444 659.729685,163.216045 C676.158961,179.115647 686.842287,200.065121 691.779663,226.06447 C696.717039,252.063818 696.034244,280.164676 689.731277,310.367044 C683.731427,338.863205 674.360568,363.840704 661.6187,385.299541 C648.876832,406.758378 633.136602,423.493896 614.398009,435.506095 C595.659416,447.518294 574.393543,453.524393 550.600389,453.524393 C538.122577,453.524393 526.14319,451.778343 514.662228,448.286243 C503.181265,444.794143 492.798713,439.705208 483.514571,433.019438 C474.230429,426.333668 466.647806,418.198716 460.766704,408.614581 L455.648082,408.614581 L450.107596,435.117042 C445.410839,457.600853 440.939076,478.812822 436.692307,498.752947 C432.445539,518.693072 428.022212,539.508175 423.422327,561.198256 L346.619565,563.612258 C351.21945,541.922177 355.768554,520.578181 360.266879,499.58027 C364.765204,478.582359 369.615864,455.780586 374.818858,431.174953 L405.5634,285.828597 C409.96954,264.997869 414.648328,242.932016 419.599767,219.631037 C424.551205,196.330059 429.675296,172.181445 434.972038,147.185197 L503.28595,143.261858 L497.314225,184.084272 L503.946871,184.084272 C511.549806,175.265743 519.974595,167.505 529.221238,160.802043 C538.467881,154.099086 548.409819,148.85078 559.047053,145.057125 C569.684286,141.26347 580.89338,139.366643 592.674335,139.366643 Z M1680.45929,36.0989191 C1677.25624,51.3110377 1674.22741,65.6520845 1671.3728,79.1220593 C1668.51818,92.5920342 1665.58857,106.365126 1662.58395,120.441336 L1662.27206,121.902766 C1660.6029,129.725162 1658.84218,137.997249 1656.98991,146.719028 L1656.89,147.186 L1751.30907,147.185197 L1738.91563,205.205618 L1644.599,205.206 L1618.69365,327.550988 C1614.20938,348.669209 1615.04764,364.418033 1621.20843,374.79746 C1627.36921,385.176888 1638.27284,390.366601 1653.91933,390.366601 C1660.9004,390.366601 1668.35959,389.196318 1676.29689,386.855752 C1684.23419,384.515185 1692.15274,380.598096 1700.05255,375.104484 L1692.17774,439.129441 C1688.06847,441.832499 1682.53111,444.258219 1675.56566,446.406603 C1668.60021,448.554986 1661.08633,450.278381 1653.02404,451.576786 C1644.96174,452.875191 1637.28068,453.524393 1629.98086,453.524393 C1607.73767,453.524393 1588.9483,449.474495 1573.61275,441.374698 C1558.27719,433.274901 1547.57434,421.068957 1541.50418,404.756865 C1535.43402,388.444774 1534.952,367.973413 1540.05812,343.34278 C1543.14554,329.005639 1546.13297,314.963023 1549.02039,301.21493 C1551.90782,287.466837 1554.84915,273.605466 1557.84439,259.630816 C1560.83963,245.656166 1563.93877,231.085438 1567.14181,215.91863 L1567.54327,214.017022 C1568.07997,211.473867 1568.62241,208.900006 1569.17057,206.295438 L1569.399,205.206 L1517.89149,205.205618 L1530.28024,147.185197 L1581.62,147.186 L1581.93623,145.703984 C1584.88547,131.862664 1587.64443,118.86924 1590.21311,106.723711 C1594.06614,88.5054179 1598.04416,69.6902645 1602.14719,50.2782511 Z M219.542934,9.70895556 C233.498834,9.70895556 247.614106,10.8456458 261.888748,13.1190263 C276.16339,15.3924068 289.855234,18.4157686 302.964281,22.1891115 C316.073327,25.9624544 328.078495,30.1537556 338.979784,34.763015 C349.881073,39.3722745 358.836318,44.0205955 365.845517,48.707978 L343.585137,119.6562 C333.063526,111.037666 320.809146,103.737067 306.821996,97.7544048 C292.834847,91.7717423 278.954726,87.2437308 265.181634,84.1703703 C251.408542,81.0970098 239.709616,79.5603296 230.084857,79.5603296 C217.991411,79.5603296 206.374514,80.7626432 195.234169,83.1672704 C184.093823,85.5718977 174.587811,89.8256973 166.716133,95.9286693 C158.844456,102.031641 153.67896,110.676737 151.219647,121.863957 C148.760334,133.251171 149.532189,143.315763 153.535214,152.057731 C157.538239,160.799699 165.297419,169.089335 176.812755,176.926639 C188.328092,184.763942 204.227693,192.926238 224.51156,201.413525 C255.20454,214.125706 278.833636,227.400374 295.398845,241.237527 C311.964055,255.07468 322.691911,270.214926 327.582414,286.658263 C332.472916,303.101601 332.79322,321.537077 328.543327,341.964689 C323.255959,367.182807 314.150719,388.011973 301.227605,404.452186 C288.304492,420.892398 270.621341,433.162403 248.178154,441.2622 C225.734967,449.361997 197.677857,453.411896 164.006826,453.411896 C141.860507,453.411896 120.63682,451.492413 100.335766,447.653446 C80.0347125,443.81448 61.9078232,438.825543 45.9550981,432.686634 C30.0023729,426.547725 17.4823743,420.178354 8.39510206,413.578519 L29.4508243,341.116273 C41.5223967,349.731682 54.5009776,357.289305 68.386567,363.789142 C82.2721564,370.288979 96.9936624,375.334947 112.551085,378.927044 C128.108507,382.519142 144.337007,384.31519 161.236583,384.31519 C174.436252,384.31519 186.560949,383.012879 197.610672,380.408257 C208.660395,377.803635 218.044534,373.035004 225.763091,366.102366 C233.481647,359.169727 238.845575,349.11451 241.854875,335.936716 C244.514183,323.949516 243.046251,313.488841 237.451079,304.55469 C231.855907,295.620539 222.674106,287.380901 209.905676,279.835778 C197.137246,272.290655 181.415765,264.640065 162.741233,256.88401 C137.073127,246.259276 116.124433,234.303326 99.8951522,221.016159 C83.6658715,207.728992 72.5013076,192.333284 66.4014605,174.829035 C60.3016134,157.324787 59.6953786,136.937016 64.5827561,113.665725 C69.2513891,91.1194149 77.9074221,72.1003604 90.5508552,56.6085612 C103.194288,41.116762 120.149332,29.4272113 141.415986,21.539909 C162.682641,13.6526067 188.724957,9.70895556 219.542934,9.70895556 Z M948.818569,139.366643 C955.509026,139.366643 962.201046,139.965847 968.894628,141.164254 C975.58821,142.362662 981.383377,143.861843 986.28013,145.661798 L964.211933,219.731816 C956.608999,218.344351 949.630267,217.452967 943.275739,217.057664 C936.921211,216.662362 930.184661,216.46471 923.066089,216.46471 C917.484979,216.46471 911.482005,217.260003 905.057166,218.850588 C898.632327,220.441173 891.91062,223.446567 884.892046,227.866768 C877.873472,232.28697 870.808805,238.640717 863.698046,246.928009 C856.587287,255.215301 849.603868,266.007218 842.74779,279.30376 L834.057383,319.774621 C829.260628,342.5553 824.738867,363.839922 820.492098,383.628489 C816.245329,403.417055 811.772004,424.20794 807.072122,446.001144 L730.869345,446.001144 C735.466104,424.41106 739.88865,403.569395 744.136981,383.476149 C748.385312,363.382903 753.160973,340.833468 758.463965,315.827845 L764.763807,285.978593 C769.169947,265.147865 773.847955,243.057013 778.797831,219.706035 C783.747707,196.355058 788.872578,172.181445 794.172445,147.185197 L859.148942,143.261858 L851.400698,197.499561 L858.038032,197.499561 C868.234651,181.315591 878.575017,169.053399 889.059129,160.712983 C899.543241,152.372567 909.851577,146.72974 919.984135,143.784501 C930.116694,140.839262 939.728172,139.366643 948.818569,139.366643 Z M1121.59954,144.808694 C1118.59962,159.608323 1115.59969,174.057961 1112.59977,188.157607 C1109.59984,202.257254 1106.39992,217.15688 1103.00001,232.856487 C1099.60009,248.556093 1095.80019,266.305648 1091.60029,286.105152 L1085.30045,315.804408 C1080.10058,340.603786 1075.3507,363.103222 1071.05081,383.302716 C1066.75092,403.502209 1062.30103,424.401686 1057.70114,446.001144 L981.503052,446.001144 C986.102937,424.401686 990.552825,403.502209 994.852717,383.302716 C999.15261,363.103222 1003.90249,340.603786 1009.10236,315.804408 L1015.4022,286.105152 C1019.6021,266.705638 1023.352,249.256076 1026.65192,233.756464 C1029.95184,218.256853 1033.05176,203.507223 1035.95169,189.507574 C1038.85161,175.507925 1041.80154,161.408278 1044.80147,147.208634 Z M1380.15082,139.366643 C1412.64063,139.366643 1435.25804,149.817943 1448.00303,170.720545 C1460.74802,191.623146 1463.32374,219.767753 1455.73018,255.154366 C1453.93022,263.55728 1451.95293,272.870328 1449.7983,283.093509 C1447.64366,293.31669 1445.31481,304.228135 1442.81175,315.827845 C1437.71188,340.433478 1432.98778,362.857916 1428.63945,383.101158 C1424.29112,403.344401 1419.81858,424.311063 1415.22182,446.001144 L1339.01904,446.001144 C1343.6158,424.211065 1347.98757,403.395962 1352.13434,383.555834 C1356.28111,363.715707 1360.70287,342.45374 1365.39963,319.769933 L1374.67596,275.788223 C1379.05398,255.298112 1378.71258,239.125861 1373.65177,227.271471 C1368.59096,215.41708 1356.91703,209.489885 1338.62999,209.489885 C1328.59899,209.489885 1319.28829,211.500772 1310.69788,215.522546 C1302.10747,219.544321 1293.91236,224.981684 1286.11256,231.834638 C1278.31275,238.687591 1270.68638,246.435834 1263.23344,255.079367 L1249.60722,319.474628 C1244.81359,342.355305 1240.29261,363.740706 1236.04428,383.630833 C1231.79595,403.520959 1227.3734,424.311063 1222.77664,446.001144 L1146.57387,446.001144 C1151.17063,424.311063 1155.64317,403.319401 1159.9915,383.02616 C1164.33983,362.732919 1169.06549,340.33348 1174.16849,315.827845 L1180.46833,285.828597 C1184.87447,265.100991 1189.55248,243.060919 1194.50235,219.708379 C1199.45223,196.355839 1204.5771,172.181445 1209.87697,147.185197 L1274.85346,143.261858 L1267.40521,194.827753 L1274.04255,194.827753 C1281.34861,185.102996 1290.44995,176.020412 1301.34655,167.579998 C1312.24315,159.139585 1324.38347,152.327256 1337.76751,147.143011 C1351.15155,141.958765 1365.27932,139.366643 1380.15082,139.366643 Z M556.304934,204.943124 C548.252011,204.943124 540.4483,206.410275 532.893802,209.344576 C525.339304,212.278878 518.110579,216.504553 511.207627,222.021602 C504.304675,227.538652 497.678278,234.175204 491.328438,241.931259 L468.318077,350.706658 C472.683592,358.940826 477.895181,365.737531 483.952841,371.096772 C490.010502,376.456012 496.837675,380.452006 504.434359,383.084752 C512.031044,385.717499 520.446458,387.033872 529.680601,387.033872 C545.08959,387.033872 558.388475,383.42615 569.577257,376.210706 C580.766039,368.995262 589.917373,359.142384 597.031257,346.652072 C604.145141,334.16176 609.344229,320.054301 612.628522,304.329695 C616.206557,286.930132 616.629984,270.669602 613.898803,255.548106 C611.167621,240.42661 605.058399,228.212072 595.571137,218.904493 C586.083875,209.596914 572.99514,204.943124 556.304934,204.943124 Z M1112.59977,2.61225846 C1127.39939,2.61225846 1138.34912,7.46213689 1145.44894,17.1618937 C1152.54876,26.8616506 1154.59871,38.7113536 1151.59879,52.7110026 C1148.39887,68.5106066 1141.74904,79.2603371 1131.64929,84.9601943 C1121.54954,90.6600514 1108.99986,93.5099799 1094.00023,93.5099799 C1079.4006,93.5099799 1068.45087,89.160089 1061.15106,80.4603071 C1053.85124,71.7605251 1051.80129,59.4108347 1055.00121,43.4112358 C1058.20113,28.8116017 1064.95096,18.3618637 1075.2507,12.0620216 C1085.55044,5.7621795 1098.00013,2.61225846 1112.59977,2.61225846 Z" id="Combined-Shape" fill="url(#linearGradient-2)"></path>
            <path d="M1966.91689,27.9993559 C1986.8666,30.359558 2004.13538,35.0542933 2018.72321,42.0835619 C2040.68516,52.6661092 2055.92697,68.0399425 2064.44863,88.2050621 C2072.97029,108.370182 2074.17807,132.922691 2068.07197,161.862591 C2062.83773,186.786966 2053.90514,207.891906 2041.27421,225.17741 C2028.64327,242.462914 2010.7781,255.581335 1987.67868,264.532673 L1986.8795,264.83953 C1976.18844,268.906808 1964.08475,272.008494 1950.56843,274.144588 L1949.63893,274.289696 L1978.19141,330.139623 C1984.97874,343.358041 1992.20434,357.438938 1999.86821,372.382314 C2007.53208,387.325689 2015.00533,401.914386 2022.28796,416.148404 C2029.57059,430.382422 2036.01496,442.999293 2041.62107,453.999018 L1948.07029,453.999018 C1939.87362,436.77445 1932.05898,420.303769 1924.62635,404.586975 L1921.87515,398.761187 L1842.90615,228.892187 L1885.77498,228.89216 C1904.55263,228.89216 1920.2874,226.979708 1932.97927,223.154804 C1945.67114,219.3299 1955.84276,212.577726 1963.49413,202.898281 C1971.1455,193.218836 1976.89145,179.444962 1980.73198,161.57666 C1983.59128,148.061374 1983.71706,136.886654 1981.10931,128.052501 C1978.50156,119.218347 1974.04464,112.266959 1967.73855,107.198336 C1961.43246,102.129713 1954.05686,98.5540214 1945.61176,96.4712611 L1944.55459,96.2163399 C1936.43785,94.3035271 1928.05061,93.3471207 1919.39289,93.3471207 L1849.62293,93.3476958 L1849.05385,96.0351967 C1848.21447,99.9941048 1847.37939,103.932333 1846.54862,107.849882 C1841.84093,130.049326 1836.6684,154.5284 1831.03104,181.287104 L1827.07215,199.840187 L1770.47969,78.7311982 C1773.86475,62.7859959 1777.32526,46.4093105 1780.86122,29.6011421 L1781.19815,28.0001873 L1966.91689,27.9993559 Z" id="Combined-Shape" fill="url(#linearGradient-3)"></path>
        </g>
    </g>
</svg>